<?xml version="1.0" standalone="no"?>
<!DOCTYPE svg PUBLIC "-//W3C//DTD SVG 1.1//EN" "http://www.w3.org/Graphics/SVG/1.1/DTD/svg11.dtd" >
<svg xmlns="http://www.w3.org/2000/svg" xmlns:xlink="http://www.w3.org/1999/xlink" version="1.1">
<metadata></metadata>
<defs>
<font id="federationregular" horiz-adv-x="1851" >
<font-face units-per-em="2048" ascent="1638" descent="-410" />
<missing-glyph horiz-adv-x="1075" />
<glyph unicode="&#xd;" horiz-adv-x="1075" />
<glyph unicode=" "  horiz-adv-x="1075" />
<glyph unicode="&#x09;" horiz-adv-x="1075" />
<glyph unicode="&#xa0;" horiz-adv-x="1075" />
<glyph unicode="!" horiz-adv-x="405" d="M131 0v160h156v-160h-156zM131 342v1079h156v-1079h-156z" />
<glyph unicode="&#x22;" horiz-adv-x="704" d="M156 1450h118l-22 -356h-74zM442 1450h119l-24 -356h-70z" />
<glyph unicode="#" horiz-adv-x="1361" d="M59 637l27 115h293l67 254h-290l32 114h289l70 266h117l-70 -266h317l74 266h117l-72 -266h279l-27 -114h-283l-65 -254h278l-30 -115h-279l-74 -277h-116l73 277h-319l-72 -268h-119l72 268h-289zM498 752h317l70 254h-322z" />
<glyph unicode="$" horiz-adv-x="1923" d="M92 1020q0 186 118 296.5t341 110.5h336v129h153v-129h277q268 0 389 -94t121 -301h-154q0 127 -71 182q-84 63 -295 64h-267v-475h324q264 0 370.5 -91t106.5 -302q0 -186 -88 -287q-115 -129 -375 -129h-338v-176h-153v176h-328q-211 0 -330 98q-125 104 -125 303h156 q0 -123 67.5 -188.5t217.5 -65.5h342v514h-346q-244 0 -353 101q-96 88 -96 264zM260 1020q0 -115 67.5 -166t188.5 -51h371v475h-371q-131 0 -188 -51q-68 -59 -68 -207zM1040 141h353q154 0 221 74q59 66 59 195q0 139 -47 186q-59 59 -233 59h-353v-514z" />
<glyph unicode="%" horiz-adv-x="2459" d="M102 938v82q0 236 92.5 317.5t372.5 81.5h78q281 0 372 -81t91 -318v-76q0 -236 -92 -317.5t-373 -81.5h-76q-281 0 -373 80t-92 313zM236 938q0 -178 55 -224t276 -46h76q223 0 277.5 46t54.5 230v76q0 184 -54.5 230t-275.5 46h-78q-223 0 -277 -46t-54 -230v-82z M961 -68l442 1559h127l-443 -1559h-126zM1382 393v82q0 236 92.5 317.5t372.5 81.5h78q279 0 370 -80.5t91 -318.5v-76q0 -236 -92 -317.5t-371 -81.5h-76q-281 0 -373 80t-92 313zM1516 393q0 -178 55 -224t276 -46h76q223 0 276.5 45t53.5 231v76q0 184 -54.5 230.5 t-273.5 46.5h-78q-223 0 -277 -46.5t-54 -230.5v-82z" />
<glyph unicode="&#x26;" horiz-adv-x="2119" d="M106 426v66q0 178 97 278q82 86 231 115q-35 29 -49 57q-20 43 -20 125q0 188 151.5 271t476.5 83h228q360 0 501 -110q121 -94 121 -301h-157q0 135 -109 199.5t-348 64.5h-240q-256 0 -360.5 -50t-104.5 -159q0 -92 62 -141q29 -23 114 -72l998 -565q94 94 135 176 q35 70 35 137h155q0 -125 -65 -242q-41 -74 -121 -157l143 -82l-94 -133l-180 104q-49 -41 -164 -61q-162 -29 -498 -29h-198q-444 0 -592 86t-148 340zM262 436q0 -178 111.5 -233.5t474.5 -55.5h192q287 0 375 10.5t127 28.5l-1010 588q-121 0 -195.5 -73t-74.5 -212v-53z " />
<glyph unicode="'" horiz-adv-x="430" d="M156 1450h118l-22 -356h-74z" />
<glyph unicode="(" horiz-adv-x="675" d="M74 254v795q0 236 149.5 368.5t392.5 132.5v-159q-190 0 -282 -88.5t-92 -255.5v-791q0 -164 93 -254t281 -90v-160q-244 0 -393 133t-149 369z" />
<glyph unicode=")" horiz-adv-x="675" d="M57 -88q190 0 283.5 89t93.5 255v791q0 166 -90 251q-96 92 -287 93v159q244 0 394.5 -133t150.5 -368v-795q0 -236 -149.5 -369t-395.5 -133v160z" />
<glyph unicode="*" horiz-adv-x="739" d="M82 995q0 27 19.5 46.5t66.5 31.5l188 49l-190 37q-45 8 -64.5 28.5t-19.5 49.5t21.5 50.5t52.5 21.5q37 0 75 -39l140 -131l-64 176l-6 41q0 37 22.5 57.5t53.5 20.5t52.5 -19.5t21.5 -58.5l-7 -41l-55 -176l127 137q20 23 38.5 31t39.5 8q33 0 54.5 -21.5t21.5 -50.5 q0 -27 -19.5 -47t-64.5 -31l-185 -43l193 -39q43 -8 63.5 -29.5t20.5 -49.5q0 -29 -20.5 -51.5t-53.5 -22.5q-39 0 -80 41l-133 133l53 -178l7 -41q0 -78 -76 -78q-31 0 -52.5 19.5t-21.5 58.5l6 41l62 176l-133 -139q-18 -20 -37 -29.5t-39 -9.5q-33 0 -55.5 20.5 t-22.5 50.5z" />
<glyph unicode="+" horiz-adv-x="997" d="M115 530v138h311v295h141v-295h312v-138h-312v-297h-141v297h-311z" />
<glyph unicode="," horiz-adv-x="393" d="M127 0v160h168v-264q0 -76 -62 -113h-79q61 43 61 113v104h-88z" />
<glyph unicode="-" horiz-adv-x="919" d="M115 520v150h686v-150h-686z" />
<glyph unicode="." horiz-adv-x="393" d="M127 0v160h168v-160h-168z" />
<glyph unicode="/" horiz-adv-x="657" d="M16 -182l478 1673h168l-478 -1673h-168z" />
<glyph unicode="0" d="M90 651v123q0 408 142.5 532t615.5 124h172q467 0 609.5 -124t142.5 -532v-123q0 -403 -142.5 -527t-609.5 -124h-172q-471 0 -614.5 123t-143.5 528zM246 651q0 -338 98 -419.5t504 -81.5h170q406 0 503 80.5t97 420.5v123q0 342 -98.5 424t-501.5 82h-170 q-408 0 -505 -81t-97 -425v-123z" />
<glyph unicode="1" d="M446 995l443 426h237v-1421h-165v1274l-406 -379z" />
<glyph unicode="2" d="M115 0v244q0 223 149.5 323.5t509.5 100.5h250q344 0 453.5 59t109.5 223q0 190 -98 256q-115 76 -465 76h-176q-338 0 -455 -61q-98 -51 -98 -189h-168q0 211 156 301q166 96 565 97h176q432 0 580 -107q137 -98 137 -373q0 -240 -125 -327q-150 -105 -588 -105h-240 q-313 0 -426 -69q-92 -57 -92 -203v-99h1465v-147h-1620z" />
<glyph unicode="3" d="M156 401h153q0 -147 97.5 -201.5t375.5 -54.5h246q332 0 435.5 54.5t103.5 216.5t-80 209q-59 35 -248 34h-467v148h467q174 0 244 43q84 51 84 194q0 129 -92 175q-113 55 -451 55h-223q-291 0 -398 -64q-94 -57 -94 -200h-153q0 203 104 293q137 119 500 118h297 q399 0 532 -78.5t133 -298.5q0 -156 -61 -223q-39 -43 -148 -80q131 -33 170 -110.5t39 -212.5q0 -236 -125 -322q-139 -96 -540 -96h-293q-360 0 -484 86t-124 315z" />
<glyph unicode="4" d="M141 307v148l1235 966h166v-966h203v-148h-203v-307h-158v307h-1243zM371 455h1013v796z" />
<glyph unicode="5" d="M106 403h156q0 -137 96 -192q109 -63 385 -64h340q297 0 396.5 69t99.5 243v69q0 307 -405 308h-517q-147 0 -240 -24t-126 -71h-158v680h1563v-147h-1407v-385q33 43 127 68.5t274 25.5h428q319 0 468 -107.5t149 -332.5v-84q0 -248 -138.5 -353.5t-466.5 -105.5h-415 q-319 0 -464 97.5t-145 305.5z" />
<glyph unicode="6" d="M125 508v426q0 276 139 389t494 113h319q356 0 509 -96.5t153 -307.5h-154q0 129 -88 189q-100 68 -340 67h-473q-229 0 -312 -74.5t-83 -273.5v-233q33 63 90 92q88 43 285 43h536q291 0 426 -101q125 -94 125 -280v-84q0 -190 -117 -279q-131 -98 -434 -98h-524 q-313 0 -428 102q-123 109 -123 406zM289 389q0 -117 75.5 -179.5t249.5 -62.5h629q182 0 261 61.5t79 180.5v62q0 109 -76 172q-86 72 -260 71h-629q-170 0 -253 -69q-76 -63 -76 -174v-62z" />
<glyph unicode="7" d="M47 1274v147h1780v-135l-1348 -1286h-217l1333 1274h-1548z" />
<glyph unicode="8" d="M133 367v69q0 147 88 226q78 68 203 67q-127 0 -203 66q-88 75 -88 225v51q0 178 117 268q125 96 377 97h635q260 0 385 -97q119 -90 118 -268v-51q0 -147 -86 -223q-78 -68 -202 -68q127 0 200 -65q88 -78 88 -228v-69q0 -178 -121.5 -271.5t-381.5 -93.5h-635 q-250 0 -372 94t-122 271zM301 373q0 -115 75 -169t269 -54h608q193 0 268.5 54t75.5 169v53q0 123 -75 176q-88 61 -301 62h-547q-211 0 -292 -57.5t-81 -180.5v-53zM301 1030q0 -123 76 -176q86 -61 297 -61h547q215 0 295.5 57t80.5 180v35q0 115 -69 166q-80 57 -275 57 h-608q-193 0 -272 -57q-72 -51 -72 -166v-35z" />
<glyph unicode="9" d="M125 973v84q0 190 117 278q131 98 434 99h524q313 0 432 -105.5t119 -402.5v-426q0 -276 -139 -389t-494 -113h-319q-358 0 -511 96t-153 307h156q0 -129 88 -188q100 -68 340 -68h473q229 0 312 75t83 274v233q-35 -63 -92 -92q-88 -43 -285 -43h-534q-293 0 -422 97 t-129 284zM293 983q0 -109 76 -172q86 -72 260 -72h626q172 0 252 66.5t80 177.5v61q0 117 -71 177q-80 66 -256 65h-627q-182 0 -261 -61.5t-79 -180.5v-61z" />
<glyph unicode=":" horiz-adv-x="393" d="M127 0v160h168v-160h-168zM127 743v160h168v-160h-168z" />
<glyph unicode=";" horiz-adv-x="393" d="M127 -4v160h168v-265q0 -76 -62 -112h-79q61 43 61 112v105h-88zM127 743v160h168v-160h-168z" />
<glyph unicode="&#x3c;" horiz-adv-x="788" d="M68 627l614 397v-160l-365 -237l365 -230v-157z" />
<glyph unicode="=" horiz-adv-x="919" d="M115 350v148h686v-148h-686zM115 680v147h686v-147h-686z" />
<glyph unicode="&#x3e;" horiz-adv-x="776" d="M113 240v157l362 230l-362 237v160l614 -397z" />
<glyph unicode="?" horiz-adv-x="1863" d="M94 1032q0 205 133 304.5t396 99.5h596q305 0 427.5 -93.5t122.5 -312.5q0 -223 -170 -315q-152 -82 -499 -82q-121 0 -168 -37t-47 -131v-123h-168v141q0 156 97 233t286 77q256 0 362 38q141 51 142 199q0 147 -78 196.5t-307 49.5h-582q-211 0 -297 -62 q-78 -55 -78 -182h-168zM717 0v160h168v-160h-168z" />
<glyph unicode="@" horiz-adv-x="1941" d="M276 659v103q0 311 117 417.5t441 106.5h409q432 0 432 -321h-100q0 104 -76 165q-88 72 -256 72h-426q-258 0 -354 -91t-96 -347v-105q0 -262 88 -354t329 -92h459q164 0 249 60.5t85 166.5l-182 2l-90 -4v45q-16 -18 -44 -31.5t-67 -13.5h-393q-190 0 -191 150v69 q0 66 47.5 103t147.5 37h383q100 0 115 -49v83q0 53 -37 86t-113 33h-262q-78 0 -117 -22.5t-39 -59.5v-14h-92v14q0 74 59.5 115t163.5 41h295q121 0 177.5 -52t56.5 -153v-295h80.5t72.5 2q45 0 65.5 -3t39.5 -15q35 -25 35 -33q-12 -8 -25 -16h14q0 -164 -99 -242 t-331 -78h-448q-315 0 -416 99q-106 104 -107 421zM670 606q0 -43 30.5 -65.5t106.5 -22.5h330q135 0 135 109q0 106 -135 106h-330q-82 0 -109.5 -19.5t-27.5 -64.5v-43z" />
<glyph unicode="A" horiz-adv-x="1810" d="M14 0l774 1421h240l774 -1421h-180l-186 342h-1061l-187 -342h-174zM459 489h899l-451 828z" />
<glyph unicode="B" horiz-adv-x="1890" d="M133 0v1421h1075q266 0 393.5 -86t127.5 -268q0 -145 -33 -209.5t-103 -101.5q90 -33 138 -88q75 -89 75 -246q0 -233 -133 -332q-121 -90 -391 -90h-1149zM289 147h1050q160 0 232 60q80 66 80 209q0 139 -75 197.5t-247 58.5h-1040v-525zM289 819h983q158 0 225 43 q78 49 78 178q0 121 -68 174q-74 59 -239 60h-979v-455z" />
<glyph unicode="C" horiz-adv-x="1941" d="M86 651v129q0 387 146.5 521.5t549.5 134.5h512q541 0 541 -404h-156q0 127 -82 189q-91 67 -297 67h-6h-532q-322 0 -421 -93t-99 -413v-131q0 -328 87 -417t394 -89h571q213 0 300 59.5t87 196.5h156q0 -207 -123 -304t-414 -97h-561q-391 0 -522 127t-131 524z" />
<glyph unicode="D" horiz-adv-x="1923" d="M145 0v1421h994q408 0 553 -133t145 -522v-115q0 -401 -129 -526t-526 -125h-1037zM301 147h899q317 0 399 84t82 420v117q0 319 -99 412.5t-421 93.5h-860v-1127z" />
<glyph unicode="E" horiz-adv-x="1583" d="M127 0v1421h1327v-147h-1171v-467h1134v-148h-1134v-512h1171v-147h-1327z" />
<glyph unicode="F" horiz-adv-x="1583" d="M127 0v1421h1327v-147h-1171v-467h1134v-148h-1134v-659h-156z" />
<glyph unicode="G" horiz-adv-x="1923" d="M102 651v129q0 387 146.5 521.5t552.5 134.5h508q541 0 540 -404h-155q0 127 -82 189q-91 67 -297 67h-6h-531q-322 0 -421 -93t-99 -413v-131q0 -326 88 -416t393 -90h570q229 0 301.5 70t72.5 311h-731v148h899q0 -416 -96 -541q-102 -133 -446 -133h-551 q-393 0 -524.5 127t-131.5 524z" />
<glyph unicode="H" horiz-adv-x="1873" d="M143 0v1421h156v-614h1327v614h154v-1421h-154v659h-1327v-659h-156z" />
<glyph unicode="I" horiz-adv-x="585" d="M217 0v1421h156v-1421h-156z" />
<glyph unicode="J" horiz-adv-x="1677" d="M80 369v106h153v-72q0 -127 91.5 -191.5t308.5 -64.5h403q209 0 299 68t90 219v987h158v-915q0 -270 -113 -383q-123 -123 -434 -123h-403q-289 0 -421 95t-132 274z" />
<glyph unicode="K" horiz-adv-x="1804" d="M104 0v1421h156v-587h252l956 587h250l-1056 -649l1046 -772h-252l-940 700h-256v-700h-156z" />
<glyph unicode="L" horiz-adv-x="1525" d="M143 0v1421h156v-1274h1122v-147h-1278z" />
<glyph unicode="M" horiz-adv-x="2416" d="M123 0v1421h350l735 -1212l756 1212h332v-1421h-154v1309h-84l-803 -1309h-106l-789 1309h-84v-1309h-153z" />
<glyph unicode="N" horiz-adv-x="1880" d="M125 0v1421h342l1151 -1274v1274h154v-1421h-224l-1186 1309h-83v-1309h-154z" />
<glyph unicode="O" horiz-adv-x="1947" d="M113 651v123q0 408 142 532t613 124h238q467 0 609.5 -124t142.5 -532v-123q0 -403 -142.5 -527t-609.5 -124h-238q-469 0 -612 123t-143 528zM266 651q0 -338 98.5 -419.5t503.5 -81.5h236q406 0 503 80.5t97 420.5v123q0 342 -98.5 424t-501.5 82h-236q-406 0 -504 -82 t-98 -424v-123z" />
<glyph unicode="P" horiz-adv-x="1744" d="M123 0v1421h1034q256 0 380 -94t124 -270v-82q0 -178 -123 -271.5t-381 -93.5h-868v-610h-166zM289 758h860q193 0 268.5 54t75.5 169v70q0 115 -70 166q-80 57 -274 57h-860v-516z" />
<glyph unicode="Q" horiz-adv-x="1947" d="M113 651v123q0 408 142 532t613 124h238q467 0 609.5 -124t142.5 -532v-123q0 -166 -15.5 -267t-58.5 -175l143 -86l-86 -123l-160 98q-84 -55 -218 -76.5t-357 -21.5h-238q-469 0 -612 123t-143 528zM266 651q0 -338 98.5 -419.5t503.5 -81.5h236q156 0 199 2 q150 8 231 38l-498 306l86 122l531 -327q29 53 40 136t11 224v123q0 342 -98.5 424t-501.5 82h-236q-406 0 -504 -82t-98 -424v-123z" />
<glyph unicode="R" horiz-adv-x="1906" d="M135 0v1421h1096q262 0 382 -88.5t120 -281.5q0 -135 -41 -203q-33 -53 -101 -78q86 -16 144 -90q74 -96 73 -262v-418h-168v416q0 139 -65.5 191t-255.5 52h-1026v-659h-158zM293 819h967q172 0 244.5 55.5t72.5 165.5q0 104 -72.5 164t-232.5 60h-979v-445z" />
<glyph unicode="S" horiz-adv-x="1966" d="M226.5 1330q111.5 91 344.5 91h783q508 0 508 -401h-156q0 127 -82 186q-92 68 -303 68h-756q-172 0 -237 -60q-57 -53 -58 -176q0 -135 83 -181t364 -46l461 -10q403 0 549.5 -88t146.5 -312q0 -221 -113.5 -311t-378.5 -90h-768q-231 0 -359 100.5t-128 302.5h156 q0 -129 79 -188q90 -68 304 -68h708q182 0 263 57.5t81 201.5q0 141 -90 190q-104 57 -407 57l-523 13q-350 0 -475 90q-108 77 -108 280t111.5 294z" />
<glyph unicode="T" horiz-adv-x="1697" d="M45 1274v147h1614v-147h-729v-1274h-156v1274h-729z" />
<glyph unicode="U" horiz-adv-x="1970" d="M129 651v770h156v-770q0 -338 98 -419.5t504 -81.5h229q406 0 503 80.5t97 420.5v770h154v-770q0 -403 -142.5 -527t-609.5 -124h-231q-471 0 -614.5 123t-143.5 528z" />
<glyph unicode="V" horiz-adv-x="1769" d="M14 1421h179l686 -1261h36l689 1261h178l-774 -1421h-220z" />
<glyph unicode="W" horiz-adv-x="2736" d="M8 1421h180l531 -1271h33l520 1271h178l522 -1271h35l530 1271h179l-615 -1421h-231l-508 1257l-502 -1257h-242z" />
<glyph unicode="X" horiz-adv-x="1820" d="M-14 0l784 752l-711 669h215l631 -602l631 602h205l-701 -669l791 -752h-205l-721 682l-704 -682h-215z" />
<glyph unicode="Y" horiz-adv-x="1718" d="M2 1421h217l643 -614l643 614h217l-776 -741v-680h-168v680z" />
<glyph unicode="Z" horiz-adv-x="1681" d="M102 0v115l1219 1159h-1219v147h1487v-112l-1206 -1162h1206v-147h-1487z" />
<glyph unicode="[" horiz-adv-x="544" d="M137 -227v1786h301v-78h-155v-1633l163 -4v-73z" />
<glyph unicode="\" horiz-adv-x="657" d="M31 1491h168l477 -1673h-166z" />
<glyph unicode="]" horiz-adv-x="544" d="M106 -156l166 4v1633h-157v78h301v-1786l-310 -2v73z" />
<glyph unicode="^" horiz-adv-x="831" d="M57 842l316 526h86l315 -526h-72l-286 403l-289 -403h-70z" />
<glyph unicode="_" horiz-adv-x="835" d="M2 -2h834v-80h-834v80z" />
<glyph unicode="`" horiz-adv-x="583" d="M78 1391l88 100l332 -279l-60 -51z" />
<glyph unicode="a" horiz-adv-x="1544" d="M80 258v123q0 109 78 170q86 67 256 67h661q84 0 134.5 -23.5t62.5 -59.5v143q0 94 -60 147q-68 61 -202 62h-451q-131 0 -197.5 -39t-66.5 -105v-24h-160v24q0 125 100.5 197t282.5 72h508q209 0 309 -97q92 -88 92 -260v-655h-153v80q-33 -37 -78 -58.5t-115 -21.5 h-675q-326 0 -326 258zM233 272q0 -72 52.5 -109.5t181.5 -37.5h567q125 0 179.5 43t54.5 141q-1 185 -234 185h-567q-137 0 -185.5 -35t-48.5 -113v-74z" />
<glyph unicode="b" horiz-adv-x="1540" d="M111 0v1421h153v-520q37 53 98 80q80 35 211 35h418q221 0 337 -106.5t116 -293.5v-221q0 -193 -110.5 -295t-342.5 -102h-418q-125 0 -198 33q-50 23 -111 80v-111h-153zM260 395q0 -123 83 -197.5t251 -74.5h344q184 0 267 64.5t83 207.5v221q0 133 -86 203t-264 70 h-344q-164 0 -249 -75t-85 -198v-221z" />
<glyph unicode="c" horiz-adv-x="1521" d="M90 375v252q0 174 107 276q117 113 333 113h465q221 0 336 -93.5t115 -265.5h-156q0 111 -65 168q-72 63 -230 64h-465q-137 0 -210.5 -64.5t-73.5 -197.5v-252q0 -117 82 -187q76 -63 190 -63h477q295 0 295 233h156q0 -160 -92 -249q-113 -109 -359 -109h-477 q-215 0 -321.5 98.5t-106.5 276.5z" />
<glyph unicode="d" horiz-adv-x="1540" d="M100 395v221q0 182 109 287q119 113 344 113h418q152 0 223 -35q43 -20 84 -80v520h156v-1421h-156v98q-41 -51 -92 -71q-70 -29 -215 -29h-418q-453 0 -453 397zM256 395q0 -272 350 -272h344q164 0 249 75.5t85 196.5v221q0 123 -80 195q-88 78 -254 78h-344 q-182 0 -266 -68.5t-84 -204.5v-221z" />
<glyph unicode="e" horiz-adv-x="1556" d="M106 379v242q0 164 115 274q125 121 336 121h447q219 0 342 -107q115 -98 114 -250v-147h-1198v-115q0 -145 84 -213q74 -59 211 -59h506q121 0 181.5 50t60.5 128v21h155v-21q0 -117 -78 -199q-100 -104 -301 -104h-520q-455 0 -455 379zM262 637h1045q0 111 -77 181.5 t-210 70.5h-488q-119 0 -194.5 -69.5t-75.5 -182.5z" />
<glyph unicode="f" horiz-adv-x="837" d="M39 872v148h131v24q0 188 98.5 282.5t284.5 94.5h225v-147h-225q-117 0 -172 -51.5t-55 -182.5v-20h454v-148h-454v-872h-156v872h-131z" />
<glyph unicode="g" horiz-adv-x="1566" d="M121 377v233q0 197 106.5 299.5t327.5 102.5h446q137 0 213 -35q43 -20 93 -76v111h155v-1090q0 -178 -100 -262q-109 -92 -354 -92h-428q-186 0 -297 73.5t-111 196.5h168q0 -61 64.5 -103t193.5 -42h399q309 0 310 237v189q-23 -53 -78 -82q-74 -37 -221 -37h-437 q-451 0 -450 377zM274 395q0 -272 353 -272h354q160 0 245 75.5t85 196.5v195q0 139 -83 219t-247 80h-354q-193 0 -273 -67.5t-80 -223.5v-203z" />
<glyph unicode="h" horiz-adv-x="1552" d="M111 -2v1423h153v-555q37 66 98 101q80 45 216 45h409q240 0 359 -117q104 -102 104 -281v-616h-156v616q0 131 -84 205t-223 74h-409q-139 0 -223.5 -74t-84.5 -205v-616h-159z" />
<glyph unicode="i" horiz-adv-x="477" d="M166 0v1012h153v-1012h-153zM166 1274v147h153v-147h-153z" />
<glyph unicode="j" horiz-adv-x="595" d="M37 -287q104 0 150 40t46 132v1127h156v-1153q0 -293 -352 -293v147zM233 1274v147h156v-147h-156z" />
<glyph unicode="k" horiz-adv-x="1308" d="M123 0v1421h153v-739h252l482 330h229l-567 -402l649 -610h-215l-574 535h-256v-535h-153z" />
<glyph unicode="l" horiz-adv-x="503" d="M190 0v1421h156v-1421h-156z" />
<glyph unicode="m" horiz-adv-x="2717" d="M104 0v1012h156v-156q35 74 107 111q86 45 231 45h365q193 0 292 -62q74 -45 117 -139q45 94 111 137q98 63 286 64h396q217 0 346 -107q121 -100 121 -254v-651h-154v618q0 133 -90 201t-262 68h-311q-178 0 -273.5 -67.5t-95.5 -209.5v-610h-156v614q0 135 -94 204 t-252 69h-321q-182 0 -281 -88q-82 -74 -82 -181v-618h-156z" />
<glyph unicode="n" horiz-adv-x="1574" d="M123 0v1012h153v-164q39 82 114 123t200 41h407q244 0 363 -127q102 -109 102 -297v-588h-155v610q0 131 -85 204t-225 73h-407q-139 0 -226.5 -76t-87.5 -201v-610h-153z" />
<glyph unicode="o" horiz-adv-x="1531" d="M92 395v221q0 184 107 287q116 113 358 113h428q246 0 363 -121q100 -102 100 -279v-221q0 -176 -102 -278q-119 -119 -361 -119h-428q-465 0 -465 397zM250 395q0 -272 321 -272h400q154 0 233 61q88 68 88 211v223q0 131 -83 201t-238 70h-400q-164 0 -242.5 -63.5 t-78.5 -209.5v-221z" />
<glyph unicode="p" horiz-adv-x="1536" d="M111 -412v1424h153v-94q51 47 127 72.5t174 25.5h420q246 0 363 -121q100 -102 100 -279v-221q0 -176 -102 -278q-119 -119 -361 -119h-420q-193 0 -301 92v-502h-153zM258 395q0 -272 322 -272h391q154 0 233 61q88 68 88 211v223q0 131 -83 201t-238 70h-391 q-162 0 -242 -63.5t-80 -209.5v-221z" />
<glyph unicode="q" horiz-adv-x="1550" d="M111 395v221q0 176 98 279q117 121 362 121h420q102 0 174 -23.5t127 -74.5v94h156v-1424h-156v502q-53 -45 -127.5 -68.5t-173.5 -23.5h-420q-240 0 -358 119q-102 102 -102 278zM264 395q0 -141 85 -206.5t239 -65.5h389q322 0 321 272v221q0 143 -78.5 208t-242.5 65 h-389q-324 0 -324 -271v-223z" />
<glyph unicode="r" horiz-adv-x="1536" d="M129 0v1012h154v-129q35 66 107.5 99.5t199.5 33.5h411q246 0 363 -121q100 -102 100 -279h-155q0 133 -82 203t-240 70h-383q-164 0 -242.5 -63.5t-78.5 -209.5v-616h-154z" />
<glyph unicode="s" horiz-adv-x="1548" d="M102 250v72h156v-54q0 -74 47 -109.5t174 -35.5h580q231 0 231 139v43q0 66 -54 105t-149 39l-616 12q-182 0 -268 53q-98 61 -99 197v47q0 117 93.5 187.5t277.5 70.5h567q227 0 330 -84q78 -63 78 -168v-70h-156v51q0 68 -37 99q-53 45 -192 45h-604q-203 0 -203 -135 v-43q0 -66 51 -95.5t152 -29.5l618 -13q178 0 271.5 -65.5t93.5 -202.5v-57q0 -115 -94.5 -181.5t-286.5 -66.5h-604q-199 0 -285 76q-72 63 -72 174z" />
<glyph unicode="t" horiz-adv-x="1251" d="M31 864v148h133v194h153v-194h801v-148h-801v-506q0 -119 63 -176t165 -57h293q121 0 180 53q45 41 45 92h168q0 -102 -84 -178q-102 -92 -295 -92h-307q-182 0 -279 90q-102 96 -102 287v487h-133z" />
<glyph unicode="u" horiz-adv-x="1560" d="M115 397v615h155v-627q0 -127 81 -193.5t227 -66.5h417q131 0 215 61q94 70 95 193v633h155v-1012h-151v121q-45 -49 -97 -76q-88 -45 -217 -45h-417q-238 0 -350.5 102.5t-112.5 294.5z" />
<glyph unicode="v" horiz-adv-x="1347" d="M12 1012h172l478 -852h34l480 852h172l-566 -1012h-202z" />
<glyph unicode="w" horiz-adv-x="2519" d="M6 1012h172l479 -852h35l477 852h185l479 -852h35l479 852h172l-565 -1012h-203l-487 868l-486 -868h-203z" />
<glyph unicode="x" horiz-adv-x="1359" d="M12 0l572 547l-492 465h193l397 -375l391 375h191l-490 -465l574 -547h-193l-475 455l-481 -455h-187z" />
<glyph unicode="y" horiz-adv-x="1349" d="M2 1012h172l477 -852h37l477 852h172l-571 -1012q-61 -109 -117 -178q-88 -111 -192 -174q-131 -80 -279 -80v149q106 0 218 80t175 203z" />
<glyph unicode="z" horiz-adv-x="1339" d="M84 0v115l903 772h-895v125h1139v-113l-901 -774h901v-125h-1147z" />
<glyph unicode="{" horiz-adv-x="608" d="M68 631q63 45 92 82q49 63 49 149v367q0 147 72 225q80 86 249 86v-113q-109 0 -155.5 -47t-46.5 -151v-367q0 -92 -37 -149q-27 -41 -92 -82q61 -45 90 -92q39 -63 39 -148v-358q0 -190 204 -191v-112q-156 0 -239.5 75.5t-83.5 227.5v366q0 78 -47 144q-33 45 -94 88z " />
<glyph unicode="|" horiz-adv-x="358" d="M127 -272v1785h119v-1785h-119z" />
<glyph unicode="}" horiz-adv-x="608" d="M102 -158q207 0 207 191v358q0 82 39 146q33 51 90 94q-63 39 -92 82q-37 55 -37 149v367q0 104 -47 151t-158 47v113q172 0 252 -86q72 -78 72 -225v-367q0 -84 49 -147q31 -41 92 -84q-57 -39 -92 -88q-49 -68 -49 -144v-366q0 -303 -326 -303v112z" />
<glyph unicode="~" horiz-adv-x="1185" d="M176 705q20 78 80 133q82 78 213 77q57 0 99 -12t81 -35q61 -37 64 -39q39 -18 88 -18q72 0 106 35q23 23 31 63h141q-6 -72 -63 -129q-78 -80 -215 -80q-72 0 -108 13.5t-78 40t-70 37.5q-43 16 -96 16q-57 0 -93 -33q-27 -27 -37 -69h-143z" />
<glyph unicode="&#xa2;" horiz-adv-x="1691" d="M180 518v293q0 156 110.5 262.5t295.5 106.5h188v131h154v-131h184q217 0 328 -109q96 -96 96 -250h-156q0 94 -65 162q-72 74 -193 74h-194v-768h215q115 0 182 80q55 66 55 151h156q0 -147 -90 -244q-106 -113 -309 -112h-209v-115h-154v115h-213q-174 0 -277.5 99 t-103.5 255zM338 537q0 -117 71.5 -182.5t198.5 -65.5h166v768h-153q-131 0 -207 -72t-76 -205v-243z" />
<glyph unicode="&#xab;" horiz-adv-x="1169" d="M111 569l442 420l70 -67l-369 -353l362 -346l-71 -67zM498 569l442 420l70 -67l-369 -353l363 -346l-72 -67z" />
<glyph unicode="&#xad;" horiz-adv-x="919" d="M115 520v150h686v-150h-686z" />
<glyph unicode="&#xb0;" horiz-adv-x="585" d="M113 1176v67q0 53 32.5 87t108.5 34h117q70 0 104.5 -35t34.5 -86v-67q0 -51 -35 -84t-104 -33h-117q-72 0 -106.5 32.5t-34.5 84.5zM160 1176q0 -74 94 -74h117q90 0 90 74v67q0 39 -23.5 56.5t-66.5 17.5h-117q-43 0 -68.5 -17.5t-25.5 -56.5v-67z" />
<glyph unicode="&#xb1;" horiz-adv-x="944" d="M78 795v135h309v297h143v-297h312v-135h-312v-297h-143v297h-309zM115 303v148h686v-148h-686z" />
<glyph unicode="&#xb2;" horiz-adv-x="1177" d="M72 0v80l852 811h-852v104h1040v-80l-844 -813h844v-102h-1040z" />
<glyph unicode="&#xb3;" horiz-adv-x="1202" d="M2 995h152l450 -430l449 430h153l-544 -520v-475h-117v475z" />
<glyph unicode="&#xb5;" horiz-adv-x="1179" d="M66 -309q0 25 7 59.5t29.5 119.5t22.5 148v1006h176v-680q0 -80 24.5 -135t82.5 -82q43 -20 88 -21q39 0 82 19.5t79 52.5q47 41 68 86v760h176v-784q0 -39 12.5 -80t38 -66.5t60.5 -25.5q20 0 45 12q35 20 45 58t18 71h41q-18 -80 -35 -111q-33 -63 -104 -102 q-55 -29 -109 -29q-33 0 -60.5 9.5t-41.5 21.5q-53 39 -66.5 92t-17.5 78q-31 -43 -59 -72q-37 -37 -84 -69q-35 -25 -87.5 -43.5t-105.5 -18.5q-61 0 -121 41q-57 49 -71 60v-48q0 -70 22 -139q33 -102 39 -134t6 -56q0 -68 -30.5 -107t-69.5 -39t-69.5 39t-30.5 109z" />
<glyph unicode="&#xb8;" horiz-adv-x="448" d="M94 -172q80 0 111 17.5t31 56.5v98h137v-109q0 -102 -59.5 -148t-219.5 -46v131z" />
<glyph unicode="&#xb9;" horiz-adv-x="1914" d="M6 995h125l373 -891h22l365 891h125l364 -891h25l371 891h125l-431 -995h-161l-357 881l-350 -881h-170z" />
<glyph unicode="&#xbb;" horiz-adv-x="1169" d="M170 924l72 65l442 -420l-432 -409l-74 65l363 344zM567 924l74 65l440 -420l-432 -409l-71 65l362 344z" />
<glyph unicode="&#xbc;" horiz-adv-x="1239" d="M10 995h125l479 -882h27l481 882h125l-542 -995h-154z" />
<glyph unicode="&#xbd;" horiz-adv-x="1378" d="M90 457v538h109v-538q0 -238 68.5 -295.5t353.5 -57.5h159q285 0 353.5 56.5t68.5 296.5v538h107v-538q0 -285 -98.5 -371t-428.5 -86h-161q-330 0 -430.5 86t-100.5 371z" />
<glyph unicode="&#xbe;" horiz-adv-x="1273" d="M-10 0l549 526l-498 469h152l440 -422l442 422h144l-490 -469l553 -526h-143l-506 477l-492 -477h-151z" />
<glyph unicode="&#xd0;" horiz-adv-x="1267" d="M10 0l541 995h168l543 -995h-127l-129 240h-744l-131 -240h-121zM322 342h628l-315 580z" />
<glyph unicode="&#xd7;" horiz-adv-x="0" />
<glyph unicode="&#xdd;" horiz-adv-x="1345" d="M72 457v90q0 272 101 365.5t388 93.5h354q379 0 379 -283h-108q0 88 -60.5 133t-210.5 45h-370q-225 0 -295 -65.5t-70 -288.5v-90q0 -231 61.5 -293t276.5 -62h397q160 0 211.5 49.5t51.5 217.5h-512v102h630q0 -291 -69.5 -381t-311.5 -90h-385q-276 0 -364 86 q-94 92 -94 371z" />
<glyph unicode="&#xde;" horiz-adv-x="1263" d="M74 0v995h108v-411h176l670 411h174l-739 -454l733 -541h-176l-660 489h-178v-489h-108z" />
<glyph unicode="&#xf0;" horiz-adv-x="1323" d="M92 0v995h754q365 0 364 -247q0 -102 -22.5 -147.5t-71.5 -72.5q63 -23 96 -61q51 -61 52 -174q0 -160 -89.5 -226.5t-277.5 -66.5h-805zM203 102h735q217 0 217 189q0 98 -53 139t-172 41h-727v-369zM203 573h688q113 0 158 29q53 35 53 127q0 84 -49 123t-166 39h-684 v-318z" />
<glyph unicode="&#xf7;" horiz-adv-x="1124" d="M20 483v113h1078v-113h-1078zM434 260q0 49 33 82t82 33t82 -33t33 -82t-33 -82t-82 -33t-82 33t-33 82zM434 819q0 49 33 82t82 33t82 -33t33 -82t-33 -81.5t-82 -32.5t-82 32.5t-33 81.5z" />
<glyph unicode="&#xfd;" horiz-adv-x="1310" d="M100 0v995h109v-430h930v430h106v-995h-106v461h-930v-461h-109z" />
<glyph unicode="&#xfe;" horiz-adv-x="1067" d="M100 0v995h109v-893h786v-102h-895z" />
<glyph unicode="&#x2000;" horiz-adv-x="779" />
<glyph unicode="&#x2001;" horiz-adv-x="1559" />
<glyph unicode="&#x2002;" horiz-adv-x="779" />
<glyph unicode="&#x2003;" horiz-adv-x="1559" />
<glyph unicode="&#x2004;" horiz-adv-x="519" />
<glyph unicode="&#x2005;" horiz-adv-x="389" />
<glyph unicode="&#x2006;" horiz-adv-x="259" />
<glyph unicode="&#x2007;" horiz-adv-x="259" />
<glyph unicode="&#x2008;" horiz-adv-x="194" />
<glyph unicode="&#x2009;" horiz-adv-x="311" />
<glyph unicode="&#x200a;" horiz-adv-x="86" />
<glyph unicode="&#x2010;" horiz-adv-x="919" d="M115 520v150h686v-150h-686z" />
<glyph unicode="&#x2011;" horiz-adv-x="919" d="M115 520v150h686v-150h-686z" />
<glyph unicode="&#x2012;" horiz-adv-x="919" d="M115 520v150h686v-150h-686z" />
<glyph unicode="&#x2013;" horiz-adv-x="1257" d="M115 520v150h1024v-150h-1024z" />
<glyph unicode="&#x2014;" horiz-adv-x="2281" d="M115 520v150h2048v-150h-2048z" />
<glyph unicode="&#x2018;" horiz-adv-x="393" d="M125 1118v262q0 74 59 113h80q-27 -20 -44 -49t-17 -64v-104h90v-158h-168z" />
<glyph unicode="&#x2019;" horiz-adv-x="393" d="M127 1262v157h168v-262q0 -37 -16.5 -65.5t-45.5 -47.5h-77q25 20 42 49t17 64v105h-88z" />
<glyph unicode="&#x201a;" horiz-adv-x="393" d="M119 164v158h168v-263q0 -37 -16.5 -65.5t-45.5 -46.5h-80q27 20 44.5 49t17.5 63v105h-88z" />
<glyph unicode="&#x201c;" horiz-adv-x="739" d="M125 1118v262q0 74 59 113h80q-27 -20 -44 -49t-17 -64v-104h90v-158h-168zM471 1118v262q0 35 15.5 65t43.5 48h80q-25 -18 -42 -48t-17 -65v-104h88v-158h-168z" />
<glyph unicode="&#x201d;" horiz-adv-x="751" d="M127 1262v157h168v-262q0 -37 -16.5 -65.5t-45.5 -47.5h-77q25 20 42 49t17 64v105h-88zM473 1262v157h168v-262q0 -37 -16.5 -65.5t-44.5 -47.5h-78q27 23 44 50.5t17 62.5v105h-90z" />
<glyph unicode="&#x201e;" horiz-adv-x="751" d="M119 164v158h168v-263q0 -37 -16.5 -65.5t-45.5 -46.5h-80q27 20 44.5 49t17.5 63v105h-88zM465 164v158h168v-263q0 -37 -16.5 -65.5t-45.5 -46.5h-79q25 18 44 49t19 63v105h-90z" />
<glyph unicode="&#x2022;" horiz-adv-x="1003" d="M154 567q0 141 102 239.5t252 98.5q145 0 249.5 -98.5t104.5 -239.5q0 -139 -103.5 -238.5t-250.5 -99.5t-250.5 99.5t-103.5 238.5z" />
<glyph unicode="&#x202f;" horiz-adv-x="311" />
<glyph unicode="&#x2039;" horiz-adv-x="716" d="M72 569l442 420l72 -67l-371 -353l363 -346l-70 -67z" />
<glyph unicode="&#x203a;" horiz-adv-x="735" d="M170 924l72 65l442 -420l-432 -409l-74 65l363 344z" />
<glyph unicode="&#x205f;" horiz-adv-x="389" />
<glyph unicode="&#x25fc;" horiz-adv-x="1013" d="M0 0v1014h1014v-1014h-1014z" />
</font>
</defs>
</svg>
